<?xml version="1.0" encoding="UTF-8"?>
<svg width="86px" height="90px" viewBox="0 0 86 90" version="1.1" xmlns="http://www.w3.org/2000/svg" xmlns:xlink="http://www.w3.org/1999/xlink">
    <!-- Generator: Sketch 45.2 (43514) - http://www.bohemiancoding.com/sketch -->
    <title>inprogress</title>
    <desc>Created with Sketch.</desc>
    <defs></defs>
    <g id="Page-1" stroke="none" stroke-width="1" fill="none" fill-rule="evenodd">
        <g id="inprogress" fill-rule="nonzero">
            <path d="M43,5.879 C19.808,5.879 0.94,24.747 0.94,47.939 C0.94,71.132 19.808,90 43,90 C66.192,90 85.06,71.132 85.06,47.939 C85.06,24.747 66.192,5.879 43,5.879 Z M43,84.5 C22.84,84.5 6.44,68.099 6.44,47.939 C6.44,27.78 22.841,11.379 43,11.379 C63.159,11.379 79.56,27.78 79.56,47.939 C79.56,68.099 63.159,84.5 43,84.5 Z" id="Shape" fill="#E56B6A"></path>
            <path d="M60.688,27.141 L45.495,42.334 C44.732,41.993 43.889,41.799 43,41.799 C42.899,41.799 42.801,41.809 42.701,41.814 L36.337,30.699 C35.582,29.382 33.901,28.923 32.584,29.679 C31.266,30.434 30.81,32.114 31.564,33.432 L37.908,44.511 C37.246,45.491 36.859,46.671 36.859,47.939 C36.859,51.325 39.614,54.079 43,54.079 C46.386,54.079 49.14,51.324 49.14,47.939 C49.14,47.05 48.946,46.208 48.605,45.444 L63.799,30.251 C64.658,29.392 64.658,27.999 63.799,27.14 C62.94,26.281 61.547,26.281 60.688,27.141 Z" id="Shape" fill="#000000"></path>
            <circle id="Oval" fill="#000000" cx="42.672" cy="17.296" r="2.887"></circle>
            <circle id="Oval" fill="#000000" cx="42.672" cy="78.583" r="2.887"></circle>
            <path d="M27.348,19.614 C27.036,19.614 26.729,19.697 26.456,19.854 C25.603,20.347 25.309,21.443 25.802,22.296 C26.12,22.848 26.714,23.19 27.352,23.19 C27.663,23.19 27.971,23.107 28.243,22.95 C28.657,22.712 28.952,22.326 29.076,21.865 C29.2,21.404 29.136,20.922 28.897,20.509 C28.58,19.957 27.986,19.614 27.348,19.614 Z" id="Shape" fill="#000000"></path>
            <path d="M57.99,72.689 C57.679,72.689 57.371,72.772 57.099,72.929 C56.246,73.422 55.952,74.518 56.444,75.371 C56.763,75.923 57.357,76.265 57.996,76.265 C58.307,76.265 58.615,76.182 58.887,76.025 C59.74,75.532 60.034,74.436 59.542,73.583 C59.223,73.032 58.629,72.689 57.99,72.689 Z" id="Shape" fill="#000000"></path>
            <path d="M17.028,31.07 C16.756,30.913 16.448,30.83 16.138,30.83 C15.499,30.83 14.905,31.173 14.587,31.724 C14.094,32.577 14.388,33.673 15.241,34.166 C15.513,34.323 15.821,34.406 16.131,34.406 C16.77,34.406 17.364,34.063 17.682,33.512 C18.175,32.658 17.881,31.563 17.028,31.07 Z" id="Shape" fill="#000000"></path>
            <path d="M70.103,61.713 C69.831,61.556 69.523,61.473 69.212,61.473 C68.574,61.473 67.98,61.816 67.661,62.367 C67.422,62.781 67.359,63.262 67.483,63.723 C67.606,64.184 67.902,64.569 68.315,64.808 C68.587,64.965 68.896,65.048 69.207,65.048 C69.845,65.048 70.439,64.706 70.757,64.154 C70.996,63.74 71.059,63.259 70.936,62.797 C70.812,62.338 70.516,61.952 70.103,61.713 Z" id="Shape" fill="#000000"></path>
            <circle id="Oval" fill="#000000" cx="12.029" cy="47.939" r="2.887"></circle>
            <circle id="Oval" fill="#000000" cx="73.315" cy="47.939" r="2.887"></circle>
            <path d="M16.131,61.473 C15.82,61.473 15.512,61.556 15.24,61.713 C14.386,62.206 14.093,63.301 14.585,64.155 C14.904,64.707 15.498,65.049 16.136,65.049 C16.447,65.049 16.755,64.966 17.027,64.809 C17.88,64.316 18.174,63.221 17.681,62.368 C17.363,61.816 16.769,61.473 16.131,61.473 Z" id="Shape" fill="#000000"></path>
            <path d="M67.483,32.155 C67.359,32.616 67.423,33.098 67.662,33.511 C67.98,34.063 68.574,34.405 69.213,34.405 C69.524,34.405 69.832,34.322 70.103,34.165 C70.517,33.927 70.813,33.541 70.936,33.08 C71.06,32.619 70.996,32.137 70.757,31.724 C70.439,31.172 69.844,30.83 69.206,30.83 C68.895,30.83 68.587,30.913 68.315,31.069 C67.902,31.308 67.606,31.694 67.483,32.155 Z" id="Shape" fill="#000000"></path>
            <path d="M28.244,72.929 C27.972,72.772 27.664,72.689 27.354,72.689 C26.716,72.689 26.121,73.032 25.803,73.583 C25.565,73.996 25.501,74.478 25.625,74.939 C25.749,75.4 26.044,75.786 26.458,76.025 C26.73,76.182 27.038,76.265 27.349,76.265 C27.987,76.265 28.582,75.922 28.9,75.371 C29.138,74.957 29.202,74.476 29.078,74.015 C28.953,73.553 28.657,73.168 28.244,72.929 Z" id="Shape" fill="#000000"></path>
            <path d="M57.099,22.95 C57.371,23.107 57.679,23.19 57.99,23.19 L57.991,23.19 C58.628,23.19 59.222,22.848 59.541,22.296 C60.034,21.443 59.74,20.347 58.887,19.854 C58.615,19.697 58.307,19.614 57.996,19.614 C57.358,19.614 56.764,19.957 56.445,20.508 C55.952,21.362 56.246,22.457 57.099,22.95 Z" id="Shape" fill="#000000"></path>
            <path d="M1.398,23.693 C1.865,24.003 2.393,24.152 2.915,24.152 C3.806,24.152 4.68,23.72 5.209,22.922 C10.552,14.868 18.475,8.623 27.521,5.336 C28.948,4.817 29.685,3.24 29.166,1.812 C28.647,0.384 27.071,-0.352 25.642,0.167 C15.5,3.852 6.616,10.854 0.627,19.882 C-0.213,21.147 0.133,22.853 1.398,23.693 Z" id="Shape" fill="#000000"></path>
            <path d="M58.478,5.335 C67.524,8.622 75.447,14.868 80.79,22.921 C81.32,23.719 82.193,24.151 83.084,24.151 C83.606,24.151 84.134,24.002 84.601,23.692 C85.867,22.852 86.212,21.146 85.373,19.88 C79.384,10.854 70.5,3.852 60.356,0.166 C58.928,-0.352 57.351,0.384 56.832,1.811 C56.314,3.239 57.051,4.816 58.478,5.335 Z" id="Shape" fill="#000000"></path>
        </g>
    </g>
</svg>