<?xml version="1.0" encoding="UTF-8"?>
<svg width="40px" height="58px" viewBox="0 0 40 58" version="1.1" xmlns="http://www.w3.org/2000/svg" xmlns:xlink="http://www.w3.org/1999/xlink">
    <!-- Generator: Sketch 51.3 (57544) - http://www.bohemiancoding.com/sketch -->
    <title>Group</title>
    <desc>Created with Sketch.</desc>
    <defs></defs>
    <g id="Page-1" stroke="none" stroke-width="1" fill="none" fill-rule="evenodd">
        <g id="Group">
            <rect id="Rectangle" fill="#FFFFFF" x="6" y="6" width="32" height="50"></rect>
            <rect id="Rectangle" fill="#FFFFFF" x="2" y="2" width="32" height="50"></rect>
            <g id="noun_Resume_146242" fill="#2BECB3" fill-rule="nonzero">
                <path d="M10.03847,14.57555 C12.06983,14.57555 13.72238,12.92231 13.72238,10.89095 C13.72238,8.85959 12.06983,7.20704 10.03847,7.20704 C8.00711,7.20704 6.35387,8.85959 6.35387,10.89095 C6.35387,12.92231 8.00711,14.57555 10.03847,14.57555 Z M10.03847,9.27704 C10.92857,9.27704 11.65238,10.00085 11.65238,10.89095 C11.65238,11.78105 10.92857,12.50555 10.03847,12.50555 C9.14837,12.50555 8.42387,11.78105 8.42387,10.89095 C8.42387,10.00085 9.14837,9.27704 10.03847,9.27704 Z" id="Shape"></path>
                <path d="M22.10726,9.92426 L29.33432,9.92426 C29.90564,9.92426 30.36932,9.46127 30.36932,8.88926 C30.36932,8.31725 29.90564,7.85426 29.33432,7.85426 L22.10726,7.85426 C21.53525,7.85426 21.07226,8.31725 21.07226,8.88926 C21.07226,9.46127 21.53594,9.92426 22.10726,9.92426 Z" id="Shape"></path>
                <path d="M7.38887,22.46777 L29.33432,22.46777 C29.90564,22.46777 30.36932,22.00478 30.36932,21.43277 C30.36932,20.86076 29.90564,20.39777 29.33432,20.39777 L7.38887,20.39777 C6.81686,20.39777 6.35387,20.86076 6.35387,21.43277 C6.35387,22.00478 6.81755,22.46777 7.38887,22.46777 Z" id="Shape"></path>
                <path d="M7.38887,28.21754 L29.33432,28.21754 C29.90564,28.21754 30.36932,27.75455 30.36932,27.18254 C30.36932,26.61053 29.90564,26.14754 29.33432,26.14754 L7.38887,26.14754 C6.81686,26.14754 6.35387,26.61053 6.35387,27.18254 C6.35387,27.75455 6.81755,28.21754 7.38887,28.21754 Z" id="Shape"></path>
                <path d="M7.38887,33.968 L29.33432,33.968 C29.90564,33.968 30.36932,33.50432 30.36932,32.933 C30.36932,32.36168 29.90564,31.898 29.33432,31.898 L7.38887,31.898 C6.81686,31.898 6.35387,32.36168 6.35387,32.933 C6.35387,33.50432 6.81755,33.968 7.38887,33.968 Z" id="Shape"></path>
                <path d="M7.38887,39.16991 L29.33432,39.16991 C29.90564,39.16991 30.36932,38.70623 30.36932,38.13491 C30.36932,37.56359 29.90564,37.09991 29.33432,37.09991 L7.38887,37.09991 C6.81686,37.09991 6.35387,37.56359 6.35387,38.13491 C6.35387,38.70623 6.81755,39.16991 7.38887,39.16991 Z" id="Shape"></path>
                <path d="M7.38887,47.39264 L9.43265,47.39264 C10.00466,47.39264 10.46765,46.92896 10.46765,46.35764 C10.46765,45.78632 10.00466,45.32264 9.43265,45.32264 L7.38887,45.32264 C6.81686,45.32264 6.35387,45.78632 6.35387,46.35764 C6.35387,46.92896 6.81755,47.39264 7.38887,47.39264 Z" id="Shape"></path>
                <path d="M29.33432,45.32264 L20.10626,45.32264 C19.53425,45.32264 19.07126,45.78632 19.07126,46.35764 C19.07126,46.92896 19.53425,47.39264 20.10626,47.39264 L29.33432,47.39264 C29.90564,47.39264 30.36932,46.92896 30.36932,46.35764 C30.36932,45.78632 29.90564,45.32264 29.33432,45.32264 Z" id="Shape"></path>
                <path d="M38.38022,4.68578 L35.50568,4.68578 L35.50568,1.7657 C35.50568,1.19369 35.042,0.7307 34.47068,0.7307 L1.61978,0.7307 C1.04777,0.7307 0.58478,1.19369 0.58478,1.7657 L0.58478,52.27922 C0.58478,52.85054 1.04777,53.31422 1.61978,53.31422 L4.49432,53.31422 L4.49432,56.2343 C4.49432,56.80562 4.95731,57.2693 5.52932,57.2693 L38.38091,57.2693 C38.95223,57.2693 39.41591,56.80562 39.41591,56.2343 L39.41591,5.72078 C39.41522,5.14877 38.95223,4.68578 38.38022,4.68578 Z M2.65478,2.8007 L33.43637,2.8007 L33.43637,5.72078 L33.43637,51.24422 L5.52863,51.24422 L2.65409,51.24422 L2.65409,2.8007 L2.65478,2.8007 Z M37.34522,55.1993 L6.56363,55.1993 L6.56363,53.31422 L34.47068,53.31422 C35.042,53.31422 35.50568,52.85054 35.50568,52.27922 L35.50568,6.75578 L37.34522,6.75578 L37.34522,55.1993 Z" id="Shape"></path>
            </g>
        </g>
    </g>
</svg>